<svg width="599" height="597" viewBox="0 0 599 597" fill="none" xmlns="http://www.w3.org/2000/svg">
<path d="M356.667 0.600001C352.933 2.06667 10.6667 216.067 7.46666 218.867C1.06666 224.467 0.666656 227.667 0.666656 266.467C0.666656 306.6 1.06666 308.733 9.46666 315.133C15.3333 319.667 22.6667 320.6 31.3333 317.667C38.8 315.133 46.1333 315.667 52.5333 319C58.2667 321.933 66.9333 332.2 68.5333 337.8C70.5333 345.133 70.4 347.933 67.2 356.467C62.5333 368.733 65.2 377.8 75.3333 384.6C77.8667 386.467 81.7333 387.667 84.5333 387.667C95.3333 387.667 104.667 396.6 104.667 407C104.667 416.333 99.2 422.467 84 429.667C74.5333 434.2 70.6667 436.733 68.6667 440.067C64.5333 446.733 63.8667 452.733 66.5333 459.667C70.5333 469.8 70.1333 472.067 64 474.067C56.8 476.6 42 475.4 32.6667 471.667C20.6667 466.867 11.2 469.267 4.13332 478.867C1.46666 482.333 1.33332 484.467 0.933323 530.067C0.666656 561.267 1.06666 579.4 1.99999 582.6C3.73332 588.467 11.0667 595.267 16.9333 596.333C22.4 597.4 578.4 554.733 584.133 553C589.067 551.4 594.667 545.8 596.533 540.6C598.533 535.4 598.533 227 596.533 206.867C587.333 112.867 532.8 49 433.467 16.3333C402 5.93334 363.067 -2.06667 356.667 0.600001ZM417.467 67.1333C423.333 71.4 426.267 76.2 426.933 82.6C427.867 90.2 424.933 97 418.8 101.667C414.8 104.733 412 105.533 402.533 106.467C396.267 107 390.267 108.2 389.2 109.133C387.467 110.467 388.267 111.4 394.267 114.6C408.933 122.6 420.933 138.2 425.333 155C437.2 200.6 393.733 244.2 348.267 232.333C313.867 223.4 292.667 188.467 301.333 155C306 137.4 318.8 121.4 334.8 113.267C342.533 109.4 342.933 109 345.067 101.4C348.933 87.2667 358.533 76.2 372 70.2C387.333 63.4 410.4 61.8 417.467 67.1333ZM265.067 129.533C274.267 133.267 279.333 143.4 277.333 153.933C276.667 158.067 273.6 161.933 260.933 174.6C244.133 191.267 240.933 193 230.4 191C223.867 189.8 215.867 181.8 214.667 175.267C212.667 165 214.533 161.4 229.733 145.8C237.6 137.933 245.867 130.6 248 129.533C253.2 127.267 259.6 127.267 265.067 129.533ZM478.4 129.533C480.8 130.467 489.067 137.933 496.933 145.8C512.133 161.4 514 165 512 175.267C510.8 181.8 502.8 189.8 496.267 191C485.733 193 482.533 191.267 465.733 174.6C453.067 161.933 450 158.067 449.333 153.933C446 136.333 462.267 122.6 478.4 129.533ZM289.733 195.267C297.6 201.133 298.667 203.933 299.067 221.533C299.6 240.6 298.267 245.267 290.533 251.133C286.4 254.333 284.267 255 278 255C271.733 255 269.6 254.333 265.467 251.133C262.667 249 259.6 245.267 258.533 242.867C256.267 237.533 256 211 258.133 205.4C260 200.467 264.4 195.8 269.333 193.533C274.667 191 285.2 191.933 289.733 195.267ZM182.8 259.133C184.8 260.6 187.733 263.533 189.2 265.533C191.867 269 192 271.267 192.667 322.733C193.333 373.533 193.467 376.733 196.267 383.267C200.8 394.467 205.2 401.267 212.933 408.6C237.867 432.067 275.467 432.067 300.4 408.6C308.133 401.133 312.667 394.467 317.067 383.267C319.6 377.133 320 372.6 320.533 344.067C321.467 308.733 321.467 308.467 330.533 301.8C335.733 297.933 348.267 297.933 353.467 301.8C360.4 307 362.267 310.733 363.467 322.733C365.333 341.267 371.467 354.333 383.6 365.933C408.533 389.4 446.133 389.4 471.067 365.933C478.8 358.467 483.333 351.8 487.733 340.6C490.267 334.467 490.667 329.933 491.2 301.4C492 271.533 492.267 268.867 494.8 265.533C501.333 256.733 502.533 256.333 530.133 255.933L555.333 255.533L555.067 333.267L554.667 410.867L526 420.6C494.267 431.133 474.933 435.667 461.067 435.667C456.133 435.667 443.067 433.8 432 431.533C420 429.133 405.867 427.133 396.667 426.733C378.533 425.933 366.267 428.067 334.667 437.667C282.8 453.4 274.267 454.6 238.933 450.467C197.467 445.533 184.933 446.6 142 458.733C115.867 466.2 112.667 466.733 112.667 464.467C112.667 463.533 114.133 462.067 115.733 461.4C121.2 458.867 134.533 445.533 138.933 438.2C150.4 419.133 150 393 138.133 374.467C133.467 367.267 123.733 357.533 117.2 353.8C113.2 351.4 112.933 350.733 112.267 341.133C110.4 315.133 94.4 292.2 69.7333 280.333C64.8 277.933 56.8 275.267 52 274.333L43.3333 272.733V264.2V255.533L111.2 255.933C177.467 256.333 179.2 256.467 182.8 259.133ZM555.333 484.2V512.867L549.733 513.533C546.533 513.933 433.867 522.733 299.333 533C164.8 543.267 52.1333 551.933 48.9333 552.333L43.3333 553V535.8V518.733L56.4 517.933C64 517.533 72.6667 516.2 77.3333 514.6C81.7333 513.133 94.6667 510.6 106 509C132 505.4 140.8 503.533 164 496.867C189.2 489.533 203.333 488.867 241.333 493C278.933 497.267 285.067 496.467 336.4 480.867C380.133 467.533 390 466.733 422 473.267C439.867 477 445.333 477.533 462.667 477.533C481.467 477.533 483.733 477.267 500.667 472.6C510.533 469.933 526.533 465.133 536 461.8C545.6 458.6 553.733 455.8 554.4 455.8C554.933 455.667 555.333 468.467 555.333 484.2Z" fill="#FF8B77"/>
<path d="M354.667 150.867C345.733 154.733 340.667 165 342.667 175.267C343.867 181.667 352.133 189.8 358.667 191.133C366.133 192.467 372.267 190.6 377.867 185.267C394.933 169 376.267 141.4 354.667 150.867Z" fill="#FF8B77"/>
</svg>
